# xmcd
#
# Track frame offsets: 
#        150
#        14063
#        28382
#        42568
#        59056
#        71062
#        83384
#        99091
#        112169
#        125873
#        138835
#        156678
#        173874
#        185963
#        203788
#
# Disc length: 3015 seconds
#
# Revision: 0
# Processed by: cddbd v1.5.2PL0 Copyright (c) Steve Scherf et al.
# Submitted via: ExactAudioCopy v0.99pb4
#
DISCID=eb0bc50f
DTITLE=David Serby - Another Sleepless Night
DYEAR=2007
DGENRE=Country
TTITLE0=The Most Reckless Thing
TTITLE1=Nobody Here By That Name
TTITLE2=If That's What You Call Love
TTITLE3=It Ain't A Party
TTITLE4=Somewhere You Once Lived
TTITLE5=Blame It On July
TTITLE6=That Was The Old Me
TTITLE7=Whatever Happened To That Girl
TTITLE8=Easy To Forget
TTITLE9=Cocktail Napkins
TTITLE10=You're Not Goin' Anywhere
TTITLE11=Six of One
TTITLE12=Short Story Long
TTITLE13=Don't Turn On The Light
TTITLE14=We Don't Live Here Anymore
EXTD=
EXTT0=
EXTT1=
EXTT2=
EXTT3=
EXTT4=
EXTT5=
EXTT6=
EXTT7=
EXTT8=
EXTT9=
EXTT10=
EXTT11=
EXTT12=
EXTT13=
EXTT14=
PLAYORDER=
